<?xml version="1.0" ?><svg id="icon" viewBox="0 0 32 32" xmlns="http://www.w3.org/2000/svg"><defs><style>.cls-1{fill:none;}</style></defs><title/><path d="M26,2H8A2,2,0,0,0,6,4V8H4v2H6v5H4v2H6v5H4v2H6v4a2,2,0,0,0,2,2H26a2,2,0,0,0,2-2V4A2,2,0,0,0,26,2Zm0,26H8V24h2V22H8V17h2V15H8V10h2V8H8V4H26Z" transform="translate(0 0)"/><rect height="2" width="8" x="14" y="8"/><rect height="2" width="8" x="14" y="15"/><rect height="2" width="8" x="14" y="22"/><rect class="cls-1" data-name="&lt;Transparent Rectangle&gt;" height="32" id="_Transparent_Rectangle_" width="32"/></svg>